<svg version="1.1" xmlns="http://www.w3.org/2000/svg" viewBox="0 0 512.9828568381145 569.3761222171121" width="512.9828568381145" height="569.3761222171121" class="excalidraw-svg">
  <!-- svg-source:excalidraw -->
  
  <defs>
    <style class="style-fonts">
      
    </style>
    <clipPath id="Kk6YciuN6uleGJ1vUxRue">
            <rect transform="translate(10 30.5) rotate(0 246.49142841905726 264.43806110855604)" width="492.9828568381145" height="528.8761222171121" rx="8" ry="8">
          </rect>
        </clipPath>
  </defs>
  <g clip-path="url(#Kk6YciuN6uleGJ1vUxRue)"><g stroke-linecap="round"><g transform="translate(168.99651004898897 216.1623091048641) rotate(0 88.48040287000488 141.9586983119111)" fill-rule="evenodd"><path d="M2.34 1.48 C2.02 7.69, -3.09 22.72, -3.6 36.14 C-4.12 49.56, 0.62 68.15, -0.76 82.01 C-2.14 95.88, -9.06 89.08, -11.89 119.33 C-14.72 149.58, -18.7 240.91, -17.73 263.5 C-16.75 286.09, -8.88 252.54, -6.05 254.87 C-3.21 257.19, -2.49 279.5, -0.72 277.43 C1.04 275.36, 0.32 242.42, 4.55 242.43 C8.79 242.44, 17.83 277.53, 24.69 277.5 C31.54 277.46, 38.92 241.98, 45.67 242.22 C52.42 242.45, 58.01 278.17, 65.2 278.91 C72.4 279.65, 81.53 246.43, 88.83 246.65 C96.12 246.87, 101.55 280.61, 108.97 280.21 C116.39 279.81, 126.05 244.45, 133.37 244.24 C140.69 244.04, 146.72 277.86, 152.88 278.97 C159.03 280.08, 166.34 249.75, 170.3 250.92 C174.26 252.09, 173.02 283.88, 176.65 285.98 C180.28 288.09, 189.08 267.46, 192.08 263.54 C195.08 259.62, 195.36 289.54, 194.63 262.45 C193.89 235.36, 190.59 130.5, 187.65 101.02 C184.71 71.53, 177.83 96.41, 176.99 85.56 C176.15 74.71, 182.48 48.9, 182.61 35.92 C182.75 22.94, 179.37 7.44, 177.8 7.69 C176.23 7.94, 185.79 33.09, 173.19 37.42 C160.58 41.76, 115.67 39.19, 102.17 33.7 C88.67 28.21, 95.57 8.89, 92.2 4.48 C88.82 0.07, 84.63 2.23, 81.91 7.23 C79.2 12.22, 88.33 29.11, 75.9 34.44 C63.47 39.77, 19.78 44.77, 7.33 39.21 C-5.12 33.66, 2.28 7.47, 1.21 1.13" stroke="none" stroke-width="0" fill="#fff4e6" fill-rule="evenodd"></path><path d="M0.85 0.6 C0.15 6.76, -3.33 23.94, -3.81 37.49 C-4.29 51.04, -0.55 68.21, -2.03 81.9 C-3.52 95.58, -9.99 89.46, -12.73 119.61 C-15.47 149.75, -19.48 239.93, -18.48 262.79 C-17.47 285.64, -9.65 254.15, -6.71 256.73 C-3.76 259.31, -3.02 280.45, -0.82 278.27 C1.38 276.08, 2.2 243.79, 6.48 243.61 C10.77 243.44, 18.22 277.52, 24.88 277.21 C31.55 276.91, 39.42 241.55, 46.47 241.8 C53.52 242.05, 59.81 278.34, 67.19 278.71 C74.58 279.09, 83.52 243.94, 90.8 244.05 C98.09 244.15, 103.58 279.49, 110.9 279.35 C118.22 279.21, 127.92 243.31, 134.72 243.2 C141.52 243.08, 145.44 277.73, 151.7 278.64 C157.95 279.56, 167.92 247.86, 172.28 248.67 C176.64 249.48, 175.07 280.46, 177.85 283.5 C180.64 286.55, 186.16 270.45, 188.97 266.92 C191.77 263.4, 194.75 289.57, 194.67 262.34 C194.6 235.11, 191.31 132.84, 188.51 103.54 C185.72 74.24, 178.63 97.76, 177.91 86.55 C177.19 75.33, 183.9 49.23, 184.18 36.26 C184.47 23.29, 181.24 8.8, 179.61 8.75 C177.98 8.71, 187.25 31.48, 174.42 35.99 C161.58 40.5, 116.03 40.58, 102.6 35.8 C89.16 31.02, 97.4 12.47, 93.82 7.31 C90.23 2.16, 84.14 0.21, 81.09 4.86 C78.03 9.5, 87.37 29.51, 75.51 35.19 C63.65 40.86, 22.49 44.84, 9.94 38.9 C-2.61 32.96, 2.03 5.85, 0.21 -0.46 M-0.17 -0.13 C-1.05 6.09, -4.22 24.59, -4.71 38.48 C-5.2 52.36, -1.71 69.56, -3.1 83.18 C-4.48 96.81, -10.79 90.2, -13.02 120.24 C-15.26 150.28, -17.79 240.84, -16.49 263.43 C-15.2 286.01, -7.88 253.41, -5.23 255.76 C-2.58 258.12, -2.36 279.65, -0.61 277.54 C1.14 275.43, 1.22 242.82, 5.27 243.11 C9.33 243.41, 17.24 279.08, 23.72 279.3 C30.2 279.52, 36.79 244.41, 44.16 244.41 C51.53 244.4, 60.33 279.43, 67.96 279.27 C75.59 279.11, 82.77 243.01, 89.94 243.44 C97.1 243.86, 103.52 281.88, 110.96 281.83 C118.4 281.79, 127.64 243.71, 134.57 243.14 C141.5 242.57, 146.63 277.27, 152.53 278.39 C158.42 279.51, 165.43 248.92, 169.95 249.86 C174.47 250.8, 176.15 281.65, 179.64 284.04 C183.14 286.42, 188.07 268.26, 190.92 264.19 C193.77 260.11, 197.13 286.63, 196.75 259.57 C196.36 232.51, 191.89 130.32, 188.6 101.83 C185.31 73.34, 177.63 99.23, 177 88.61 C176.38 78, 184.39 51.55, 184.87 38.14 C185.35 24.73, 181.42 8.12, 179.89 8.13 C178.36 8.14, 188.88 33.48, 175.68 38.19 C162.47 42.91, 114.11 41.53, 100.67 36.44 C87.24 31.35, 98.15 12.49, 95.06 7.67 C91.96 2.86, 85.17 3.17, 82.09 7.55 C79.01 11.94, 88.55 29.07, 76.56 33.98 C64.56 38.88, 23.18 42.39, 10.14 37 C-2.9 31.61, -0.28 7.82, -1.67 1.61" stroke="#ffd8a8" stroke-width="1" fill="none"></path></g></g><mask></mask></g><g clip-path="url(#Kk6YciuN6uleGJ1vUxRue)"><g stroke-linecap="round"><g transform="translate(166.81014668790812 492.90991806021526) rotate(0 98.46496861727246 -95.05787627757445)"><path d="M1.04 -0.14 C8.17 -25.96, 23.27 -155.91, 42.41 -156.02 C61.55 -156.12, 92.95 5.01, 115.91 -0.75 C138.86 -6.52, 166.8 -188.45, 180.12 -190.62 C193.44 -192.78, 195.04 -38.89, 195.82 -13.74 C196.6 11.4, 186.64 -35.68, 184.79 -39.75 M0.13 -1.26 C7.14 -27.32, 22.31 -158.06, 41.55 -157.76 C60.78 -157.47, 92.38 5.86, 115.53 0.53 C138.69 -4.81, 166.84 -187.51, 180.49 -189.78 C194.13 -192.04, 196.52 -38.42, 197.43 -13.05 C198.33 12.31, 187.98 -33.26, 185.91 -37.6" stroke="#1e1e1e" stroke-width="2" fill="none"></path></g></g><mask></mask></g><g clip-path="url(#Kk6YciuN6uleGJ1vUxRue)"><g stroke-linecap="round"><g transform="translate(151.81894039323686 477.91871176554406) rotate(0 104.25702559475909 -82.11092538672202)"><path d="M0.73 -0.81 C3.14 -30.95, 1.69 -184.22, 15.4 -181.63 C29.1 -179.04, 59.95 7.44, 82.98 14.71 C106.01 21.99, 134.65 -138.22, 153.58 -137.98 C172.51 -137.75, 187.49 -2.43, 196.57 16.12 C205.64 34.67, 206.2 -19.42, 208.02 -26.67 M-0.34 1.38 C1.8 -28.52, 0.56 -182.21, 14.3 -180.29 C28.05 -178.36, 58.79 6.22, 82.13 12.94 C105.47 19.65, 135.46 -140.51, 154.32 -140 C173.17 -139.48, 186.12 -2.67, 195.26 16.03 C204.41 34.74, 207.11 -20.84, 209.17 -27.77" stroke="#1e1e1e" stroke-width="2" fill="none"></path></g></g><mask></mask></g><g clip-path="url(#Kk6YciuN6uleGJ1vUxRue)"><g stroke-linecap="round"><g transform="translate(141.59766337414283 332.0951596264693) rotate(0 116.18184878370212 80.40737921687298)"><path d="M-0.74 -0.02 C8.22 26.69, 33.48 158.26, 53.24 159.21 C73.01 160.16, 96.74 5.47, 117.86 5.68 C138.97 5.89, 160.88 161.39, 179.96 160.47 C199.04 159.54, 226.29 22.13, 232.35 0.16 C238.41 -21.82, 218.88 24.05, 216.32 28.62 M1.08 -1.08 C9.99 25.85, 33.37 159.45, 52.7 160.26 C72.04 161.08, 95.82 3.62, 117.07 3.81 C138.33 4, 161.27 161.92, 180.24 161.39 C199.21 160.86, 224.66 22.87, 230.88 0.63 C237.09 -21.61, 219.72 23.09, 217.54 27.94" stroke="#1e1e1e" stroke-width="2" fill="none"></path></g></g><mask></mask></g><g clip-path="url(#Kk6YciuN6uleGJ1vUxRue)"><g stroke-linecap="round"><g transform="translate(168.17298362378727 492.90991806021526) rotate(0 -7.154893913365811 -24.871774079795443)"><path d="M0.21 -0.24 C-2.19 -8.53, -12.42 -47.53, -14.77 -49.48 C-17.11 -51.42, -15.33 -16.88, -13.87 -11.88 C-12.4 -6.89, -7.3 -18.34, -5.97 -19.52 M-0.35 0.83 C-2.55 -7.65, -11.43 -48.04, -13.77 -50.3 C-16.1 -52.57, -15.61 -17.93, -14.34 -12.75 C-13.07 -7.57, -7.66 -18.25, -6.12 -19.24" stroke="#1e1e1e" stroke-width="2" fill="none"></path></g></g><mask></mask></g><g clip-path="url(#Kk6YciuN6uleGJ1vUxRue)"><g stroke-linecap="round"><g transform="translate(167.4915651558478 298.0242362294892) rotate(0 89.94723776802738 -98.12425938330267)"><path d="M-0.52 -0.32 C-0.21 -13.44, 4.26 -54.54, 2.08 -78.71 C-0.1 -102.87, -12.85 -124.79, -13.62 -145.29 C-14.38 -165.78, -11.07 -202.56, -2.5 -201.69 C6.06 -200.81, 22.03 -161.21, 37.78 -140.04 C53.53 -118.86, 74.25 -74.14, 91.99 -74.65 C109.74 -75.15, 128.89 -122.07, 144.26 -143.07 C159.63 -164.08, 175.96 -200.75, 184.22 -200.68 C192.48 -200.61, 194.38 -164.02, 193.84 -142.65 C193.29 -121.27, 183.03 -96.83, 180.96 -72.43 C178.89 -48.04, 181.51 -9.19, 181.42 3.73 M1.4 -1.53 C2.09 -14.54, 7.02 -53.95, 4.45 -77.71 C1.88 -101.46, -12.8 -123.51, -14.02 -144.04 C-15.24 -164.58, -11.33 -201.15, -2.85 -200.94 C5.62 -200.73, 20.78 -163.67, 36.83 -142.77 C52.87 -121.87, 75.47 -75.31, 93.41 -75.52 C111.34 -75.74, 129.45 -123.65, 144.44 -144.05 C159.42 -164.44, 174.78 -198.43, 183.32 -197.9 C191.85 -197.37, 195.86 -161.66, 195.63 -140.85 C195.4 -120.03, 184.17 -97.16, 181.93 -72.99 C179.69 -48.82, 182.68 -8.8, 182.18 4.16" stroke="#1e1e1e" stroke-width="2" fill="none"></path></g></g><mask></mask></g><g clip-path="url(#Kk6YciuN6uleGJ1vUxRue)"><g stroke-linecap="round"><g transform="translate(168.85440209172697 216.25402007673694) rotate(0 89.26581930008783 -57.579860540896334)"><path d="M-0.74 -0.46 C1.95 -7.6, 4.52 -27.5, 15.71 -43.6 C26.9 -59.69, 53.61 -83.06, 66.39 -97.04 C79.17 -111.02, 84.01 -128.27, 92.39 -127.46 C100.77 -126.65, 107.96 -103.25, 116.68 -92.17 C125.4 -81.08, 135.66 -71.71, 144.72 -60.95 C153.77 -50.2, 165.25 -39.58, 170.99 -27.66 C176.73 -15.73, 177.88 3.91, 179.14 10.58 M1.07 -1.75 C4.2 -8.62, 7.24 -25.87, 18.09 -42.05 C28.93 -58.23, 54.23 -84.7, 66.13 -98.81 C78.04 -112.92, 81.35 -127.4, 89.54 -126.74 C97.73 -126.07, 105.83 -106.13, 115.29 -94.81 C124.74 -83.5, 136.82 -70.34, 146.26 -58.85 C155.71 -47.37, 166.6 -37.95, 171.96 -25.91 C177.33 -13.87, 177.62 7.16, 178.44 13.37" stroke="#1e1e1e" stroke-width="2" fill="none"></path></g></g><mask></mask></g><g clip-path="url(#Kk6YciuN6uleGJ1vUxRue)"><g stroke-linecap="round"><g transform="translate(148.41184805353896 365.48466455550977) rotate(0 105.61986253063827 1.0221277019093975)"><path d="M0.08 -0.39 C35.4 0.07, 177.29 2.11, 212.42 2.63 M-1.33 -1.63 C33.88 -1.52, 176.88 0.41, 212.09 0.81" stroke="#1e1e1e" stroke-width="0.5" fill="none"></path></g></g><mask></mask></g><g clip-path="url(#Kk6YciuN6uleGJ1vUxRue)"><g stroke-linecap="round"><g transform="translate(168.85440209172697 252.36919887753584) rotate(0 88.44040989702393 3.4070923396980106)"><path d="M-0.65 1.1 C14.25 2.12, 59.27 6.89, 88.93 6.85 C118.59 6.82, 192.01 1.87, 177.31 0.89 C162.62 -0.08, 30.51 1.05, 0.77 0.98 M1.2 0.63 C16.52 1.79, 61.85 8.25, 91.11 8.41 C120.37 8.57, 191.72 3.19, 176.77 1.61 C161.83 0.03, 30.8 -0.98, 1.42 -1.06" stroke="#1e1e1e" stroke-width="0.5" fill="none"></path></g></g><mask></mask></g><g transform="translate(10 10) rotate(0 20.3310546875 8.75)"><text x="0" y="12.5302734375" font-family="Helvetica, Segoe UI Emoji" font-size="14px" fill="#7A7A7A" text-anchor="start" style="white-space: pre;" direction="ltr" dominant-baseline="alphabetic">Frame</text></g><rect transform="translate(10 30.5) rotate(0 246.49142841905726 264.43806110855604)" width="492.9828568381145px" height="528.8761222171121px" rx="8" ry="8" fill="none" stroke="#D4D4D4" stroke-width="#ADADAD"></rect></svg>